<svg width="50" height="50" viewBox="0 0 50 50" fill="none" xmlns="http://www.w3.org/2000/svg">
<g clip-path="url(#clip0_121_624)">
<path d="M27.1157 33.9845H25.0001C24.4607 33.9845 24.0235 34.4217 24.0235 34.9611C24.0235 35.5005 24.4607 35.9376 25.0001 35.9376H27.1157C27.6551 35.9376 28.0923 35.5005 28.0923 34.9611C28.0923 34.4217 27.6551 33.9845 27.1157 33.9845Z" fill="#413E3E"/>
<path d="M10.9376 43.3594C10.6808 43.3594 10.4287 43.4639 10.2471 43.6455C10.0655 43.8271 9.961 44.0792 9.961 44.3359C9.961 44.5927 10.0655 44.8448 10.2471 45.0264C10.4287 45.208 10.6808 45.3125 10.9376 45.3125C11.1943 45.3125 11.4464 45.208 11.628 45.0264C11.8096 44.8448 11.9141 44.5927 11.9141 44.3359C11.9141 44.0792 11.8096 43.8271 11.628 43.6455C11.4464 43.4639 11.1943 43.3594 10.9376 43.3594Z" fill="#413E3E"/>
<path d="M39.0626 43.3594C38.8055 43.3594 38.5537 43.4639 38.3722 43.6455C38.1906 43.8271 38.0861 44.0792 38.0861 44.3359C38.0861 44.5927 38.1902 44.8448 38.3722 45.0264C38.5537 45.208 38.8055 45.3125 39.0626 45.3125C39.3194 45.3125 39.5711 45.208 39.7527 45.0264C39.9343 44.8448 40.0392 44.5927 40.0392 44.3359C40.0392 44.0792 39.9347 43.8271 39.7527 43.6455C39.5711 43.4639 39.3194 43.3594 39.0626 43.3594Z" fill="#413E3E"/>
<path d="M38.0861 27.7345C38.1475 27.7345 38.2089 27.7288 38.2696 27.7169C45.0666 26.4146 49.9998 20.4461 49.9998 13.5254V4.3915C49.9998 3.96425 49.7221 3.58659 49.3143 3.45956L38.4 0.0518801C38.3005 0.0179292 38.1944 0 38.0865 0C38.0861 0 38.0857 0 38.0853 0C37.9774 0 37.8717 0.0179292 37.7721 0.0518801L26.8575 3.45956C26.4497 3.58697 26.172 3.96425 26.172 4.3915V13.5254C26.172 15.5041 26.576 17.4046 27.3107 19.1407H19.6374C19.6374 19.1407 19.637 19.1407 19.6366 19.1407H10.0586C9.69128 19.1407 9.3552 19.3467 9.1885 19.674L4.22479 29.4137C4.14163 29.4584 4.06496 29.5152 3.99706 29.5831L0.286103 33.2937C0.102997 33.4768 0 33.7255 0 33.9845V44.3361C0 44.8751 0.437166 45.3127 0.976566 45.3127H5.35929C5.82392 47.9715 8.14746 49.9998 10.9375 49.9998C13.7276 49.9998 16.0512 47.9715 16.5154 45.3127H25.586C26.1251 45.3127 26.5626 44.8751 26.5626 44.3361C26.5626 43.7967 26.1251 43.3595 25.586 43.3595H22.0704V31.2501H39.4044C39.7848 31.2501 40.1598 31.2749 40.5275 31.323V33.6915C40.5275 35.4413 41.9512 36.8654 43.7013 36.8654H47.4993C47.8529 37.808 48.0471 38.828 48.0471 39.8927V43.3595H44.6405C44.1763 40.7003 41.8524 38.672 39.0627 38.672C35.9392 38.672 33.3986 41.2126 33.3986 44.3361C33.3986 47.4592 35.9392 49.9998 39.0627 49.9998C41.8524 49.9998 44.1763 47.9715 44.6405 45.3127H49.0232C49.5626 45.3127 49.9998 44.8751 49.9998 44.3361V39.8927C49.9998 34.0501 45.2467 29.297 39.4044 29.297H38.4298L36.9703 27.5064C37.2766 27.5861 37.5875 27.6567 37.9022 27.7169C37.9629 27.7288 38.0243 27.7345 38.0861 27.7345ZM39.0627 48.0471C37.0164 48.0471 35.3517 46.3823 35.3517 44.3361C35.3517 42.2899 37.0164 40.6252 39.0627 40.6252C41.1089 40.6252 42.7736 42.2899 42.7736 44.3361C42.7736 46.3823 41.1089 48.0471 39.0627 48.0471ZM46.4636 34.9122H43.7013C43.028 34.9122 42.4806 34.3648 42.4806 33.6915V31.8166C44.0954 32.4338 45.4798 33.5218 46.4636 34.9122ZM28.1251 5.10981L38.0861 2.00005L48.0471 5.10981V13.5254C48.0471 19.4482 43.8692 24.5648 38.0861 25.7623C32.3026 24.5645 28.1251 19.4482 28.1251 13.5254V5.10981ZM28.4455 21.2968L22.0704 27.6719V21.0938H28.3185C28.3605 21.1617 28.4028 21.2296 28.4455 21.2968ZM20.1173 21.0938V29.297H11.8386L20.0417 21.0938H20.1173ZM10.6572 21.0938H17.2795L9.07634 29.297H6.47662L10.6572 21.0938ZM4.68752 31.6549V34.4728C4.68752 35.1461 4.14011 35.6935 3.46681 35.6935H1.95313V34.3892L4.68752 31.6549ZM10.9375 48.0471C8.89133 48.0471 7.22659 46.3823 7.22659 44.3361C7.22659 42.2899 8.89133 40.6252 10.9375 40.6252C12.9838 40.6252 14.6485 42.2899 14.6485 44.3361C14.6485 46.3823 12.9838 48.0471 10.9375 48.0471ZM20.1173 43.3595H16.5154C16.0512 40.7003 13.7276 38.672 10.9375 38.672C8.14746 38.672 5.82392 40.7003 5.35929 43.3595H1.95313V37.6466H3.46681C5.217 37.6466 6.64065 36.223 6.64065 34.4728V31.2501H20.1173V43.3595ZM35.9102 29.297H23.2072L29.6201 22.8845C30.6142 24.0529 31.7933 25.0649 33.1182 25.8721L35.9102 29.297Z" fill="#413E3E"/>
<path d="M37.8275 23.692C37.9122 23.7152 37.9991 23.7271 38.0861 23.7271C38.1727 23.7271 38.2601 23.7152 38.3444 23.692C42.9071 22.4392 46.094 18.2587 46.094 13.5254V7.2643C46.094 6.83705 45.8159 6.45939 45.4081 6.33198L38.3768 4.137C38.1876 4.07787 37.9843 4.07787 37.7947 4.137L30.7638 6.33198C30.3556 6.45939 30.0779 6.83705 30.0779 7.2643V13.5254C30.0783 18.2587 33.2647 22.4392 37.8275 23.692ZM32.0314 7.98261L38.0861 6.09204L44.1408 7.98261V13.5254C44.1408 17.2917 41.6643 20.6288 38.0861 21.7335C34.5075 20.6288 32.0314 17.2917 32.0314 13.5254V7.98261Z" fill="#413E3E"/>
<path d="M37.211 16.6466C37.4609 16.6466 37.7107 16.5512 37.9015 16.3605L41.9016 12.3604C42.2827 11.9789 42.2827 11.3605 41.9016 10.9791C41.5201 10.598 40.9017 10.598 40.5203 10.9791L37.211 14.2887L35.6515 12.7292C35.2701 12.3478 34.6517 12.3478 34.2702 12.7292C33.8888 13.1107 33.8888 13.7291 34.2702 14.1106L36.5202 16.3605C36.7113 16.5512 36.9611 16.6466 37.211 16.6466Z" fill="#413E3E"/>
<path d="M29.9806 43.3594C29.7235 43.3594 29.4717 43.4639 29.2901 43.6455C29.1086 43.8271 29.004 44.0792 29.004 44.3359C29.004 44.5927 29.1082 44.8448 29.2901 45.0264C29.4717 45.208 29.7235 45.3125 29.9806 45.3125C30.2373 45.3125 30.4891 45.208 30.6707 45.0264C30.8526 44.8448 30.9572 44.5927 30.9572 44.3359C30.9572 44.0792 30.8526 43.8271 30.6707 43.6455C30.4891 43.4639 30.2373 43.3594 29.9806 43.3594Z" fill="#413E3E"/>
</g>
<defs>
<clipPath id="clip0_121_624">
<rect width="50" height="50" fill="white"/>
</clipPath>
</defs>
</svg>
