<svg width="40" height="40" viewBox="0 0 40 40" fill="none" xmlns="http://www.w3.org/2000/svg">
<path fill-rule="evenodd" clip-rule="evenodd" d="M19.5257 39.0515C30.3095 39.0515 39.0515 30.3095 39.0515 19.5257C39.0515 8.74197 30.3095 0 19.5257 0C8.74197 0 0 8.74197 0 19.5257C0 30.3095 8.74197 39.0515 19.5257 39.0515ZM26.8129 11.6145C27.117 11.6619 27.4025 11.7909 27.639 11.9877C27.8745 12.1828 28.0524 12.4382 28.1539 12.7266C28.2554 13.0151 28.2765 13.3256 28.2151 13.6252L25.5042 26.933C25.4239 27.3162 25.2143 27.6601 24.9106 27.9071C24.6069 28.1542 24.2274 28.2892 23.8359 28.2897C23.4623 28.2894 23.0994 28.1647 22.8046 27.9351L19.456 25.3411L17.2108 27.8199L17.0843 27.9264C17.0317 27.9647 16.9747 27.9967 16.9146 28.0216C16.907 28.0248 16.8997 28.0286 16.8925 28.0323C16.8825 28.0375 16.8724 28.0427 16.8615 28.0464C16.7809 28.0737 16.6965 28.0884 16.6113 28.0899C16.6087 28.0899 16.6062 28.0906 16.6037 28.0912C16.6011 28.0919 16.5985 28.0926 16.5957 28.0926C16.5393 28.0925 16.483 28.0868 16.4278 28.0755L16.4222 28.0731L16.4123 28.0723C16.3204 28.0498 16.233 28.0115 16.1542 27.9592C16.1337 27.9462 16.1153 27.9325 16.0962 27.9179C16.0288 27.8675 15.9695 27.8071 15.9205 27.7387C15.9173 27.7342 15.9136 27.7302 15.91 27.7262C15.9058 27.7215 15.9016 27.7169 15.8981 27.7116C15.8557 27.6466 15.8226 27.576 15.7998 27.5019L14.121 21.9502L11.109 20.9027C10.7839 20.7893 10.5009 20.5797 10.2977 20.3017C10.0945 20.0237 9.98062 19.6905 9.9712 19.3463C9.96178 19.0021 10.0573 18.6632 10.245 18.3745C10.4327 18.0859 10.7037 17.8611 11.0222 17.7301L25.9123 11.7184C26.1976 11.603 26.5088 11.5671 26.8129 11.6145ZM16.6988 22.635C16.7312 22.4757 16.81 22.3295 16.9252 22.2147L19.1679 19.9712L15.7902 21.7302L16.4416 23.8847L16.6988 22.635ZM19.8657 23.556L23.823 26.6215L26.5874 13.2933L11.6494 19.2693L14.7439 20.4017L23.1901 16.0042C23.3661 15.9124 23.5691 15.8866 23.7625 15.9316C23.9559 15.9765 24.1267 16.0893 24.2442 16.2494C24.3616 16.4094 24.4178 16.6063 24.4026 16.8042C24.3874 17.0022 24.3018 17.1881 24.1613 17.3284L18.2762 23.2136L18.0221 24.4486L18.7411 23.655C18.8818 23.5001 19.0756 23.4039 19.2841 23.3855C19.4925 23.3672 19.7002 23.428 19.8657 23.556Z" fill="#282828"/>
</svg>
