<svg width="48" height="48" viewBox="0 0 48 48" fill="none" xmlns="http://www.w3.org/2000/svg">
<path fill-rule="evenodd" clip-rule="evenodd" d="M32.9075 5.186C26.699 3.79819 20.2607 3.79819 14.0522 5.186L13.3832 5.334C11.6368 5.72445 10.0329 6.59139 8.74955 7.8385C7.4662 9.08562 6.5537 10.6641 6.11342 12.3986C4.53967 18.5999 4.53967 25.096 6.11342 31.2973C6.5333 32.9515 7.38308 34.4652 8.57661 35.6851C9.77015 36.905 11.265 37.7876 12.9096 38.2435L13.8272 43.7215C13.8565 43.8954 13.9319 44.0584 14.0455 44.1933C14.1592 44.3282 14.3069 44.4302 14.4733 44.4886C14.6398 44.547 14.8188 44.5598 14.9919 44.5255C15.1649 44.4913 15.3256 44.4112 15.4572 44.2938L20.8464 39.4729C24.892 39.7198 28.9521 39.3962 32.9075 38.5119L33.5784 38.3639C35.3248 37.9734 36.9288 37.1065 38.2121 35.8594C39.4955 34.6122 40.408 33.0338 40.8483 31.2993C42.4218 25.098 42.4218 18.6019 40.8483 12.4006C40.4078 10.6658 39.495 9.08717 38.2113 7.84003C36.9276 6.59289 35.3232 5.7261 33.5765 5.33598L32.9075 5.186ZM15.7177 12.2387C15.3509 12.1854 14.977 12.2592 14.658 12.4479H14.6304C13.8904 12.882 13.2234 13.4287 12.6551 14.072C12.1815 14.6186 11.9249 15.1711 11.8578 15.7039C11.8184 16.0197 11.846 16.3393 11.9387 16.6413L11.9743 16.661C12.5071 18.2259 13.2017 19.7315 14.0502 21.1484C15.1443 23.1385 16.4908 24.979 18.0561 26.6244L18.1035 26.6915L18.1785 26.7468L18.2238 26.8001L18.2791 26.8474C19.9302 28.4175 21.7751 29.7703 23.7689 30.873C26.0482 32.1143 27.4315 32.7004 28.2622 32.945V32.9569C28.505 33.0319 28.726 33.0654 28.949 33.0654C29.6565 33.0131 30.3262 32.7255 30.8513 32.2485C31.4926 31.6801 32.0353 31.0112 32.4576 30.2672V30.2534C32.8542 29.5035 32.72 28.7971 32.1478 28.3176C30.9983 27.3132 29.7553 26.4211 28.4359 25.6535C27.5518 25.174 26.654 25.4641 26.2909 25.9495L25.5154 26.9283C25.1167 27.4138 24.3945 27.3467 24.3945 27.3467L24.3748 27.3585C18.9856 25.9831 17.547 20.5268 17.547 20.5268C17.547 20.5268 17.4799 19.7848 17.9791 19.4059L18.95 18.6245C19.4157 18.2456 19.7394 17.3497 19.2401 16.4656C18.4776 15.145 17.5873 13.9024 16.582 12.7558C16.3628 12.4859 16.0553 12.3021 15.7137 12.2368L15.7177 12.2387ZM24.8227 9.86678C24.561 9.86678 24.3101 9.97073 24.125 10.1558C23.94 10.3408 23.836 10.5918 23.836 10.8534C23.836 11.1151 23.94 11.3661 24.125 11.5511C24.3101 11.7362 24.561 11.8401 24.8227 11.8401C27.319 11.8401 29.391 12.6551 31.0309 14.218C31.8735 15.0725 32.5306 16.0848 32.9608 17.1938C33.3929 18.3048 33.5903 19.4908 33.539 20.6787C33.5335 20.8083 33.5537 20.9377 33.5982 21.0595C33.6428 21.1813 33.7109 21.2931 33.7987 21.3886C33.9759 21.5814 34.2225 21.6959 34.4842 21.7068C34.7459 21.7178 35.0012 21.6244 35.194 21.4472C35.3868 21.2699 35.5013 21.0233 35.5123 20.7616C35.5735 19.3003 35.331 17.8422 34.7999 16.4795C34.2666 15.1102 33.458 13.865 32.424 12.8209L32.4043 12.8011C30.3698 10.8574 27.7946 9.86678 24.8227 9.86678ZM24.7556 13.111C24.4939 13.111 24.243 13.2149 24.0579 13.3999C23.8729 13.585 23.7689 13.8359 23.7689 14.0976C23.7689 14.3593 23.8729 14.6103 24.0579 14.7953C24.243 14.9803 24.4939 15.0843 24.7556 15.0843H24.7892C26.5889 15.2126 27.8992 15.8125 28.8168 16.7972C29.758 17.8115 30.2455 19.0724 30.208 20.6314C30.2019 20.8931 30.3001 21.1464 30.4809 21.3357C30.6617 21.525 30.9103 21.6347 31.1719 21.6407C31.4336 21.6468 31.687 21.5486 31.8763 21.3678C32.0656 21.187 32.1753 20.9384 32.1813 20.6768C32.2287 18.6304 31.5696 16.8643 30.2632 15.4553V15.4513C28.9273 14.0187 27.094 13.2609 24.8878 13.1129L24.8543 13.109L24.7556 13.111ZM24.7181 16.4163C24.5861 16.4047 24.453 16.4197 24.3269 16.4606C24.2009 16.5015 24.0843 16.5674 23.9842 16.6544C23.8842 16.7413 23.8027 16.8475 23.7446 16.9667C23.6865 17.0858 23.653 17.2154 23.6461 17.3478C23.6392 17.4802 23.659 17.6126 23.7044 17.7371C23.7498 17.8617 23.8199 17.9758 23.9103 18.0727C24.0008 18.1695 24.1099 18.2472 24.2311 18.301C24.3522 18.3548 24.483 18.3836 24.6155 18.3857C25.4404 18.4291 25.9672 18.6778 26.2988 19.0113C26.6323 19.3467 26.8809 19.8854 26.9263 20.7281C26.9288 20.8605 26.9578 20.991 27.0118 21.112C27.0658 21.2329 27.1436 21.3417 27.2405 21.4319C27.3375 21.5222 27.4516 21.592 27.5761 21.6372C27.7006 21.6824 27.8329 21.702 27.9651 21.695C28.0974 21.688 28.2268 21.6544 28.3458 21.5963C28.4648 21.5382 28.5709 21.4567 28.6578 21.3567C28.7446 21.2567 28.8104 21.1402 28.8513 21.0143C28.8922 20.8883 28.9073 20.7554 28.8957 20.6235C28.8325 19.4395 28.4616 18.3936 27.7018 17.624C26.9381 16.8544 25.8982 16.4795 24.7181 16.4163Z" fill="#282828"/>
</svg>
